<svg version="1.1" xmlns="http://www.w3.org/2000/svg" xmlns:xlink="http://www.w3.org/1999/xlink" width="700" height="700" viewBox="418,15.5,700,700"><defs><clipPath id="clip-1"><rect x="7340.625" y="2686.87506" transform="scale(0.10667,0.10667)" width="300" height="300" id="clip-1" fill="none"/></clipPath><clipPath id="clip-2"><rect x="50113.49672" y="18342.94823" transform="scale(0.01562,0.01562)" width="2048" height="2048" id="clip-2" fill="none"/></clipPath></defs><g id="document" fill="#ffffff" fill-rule="nonzero" stroke="#000000" stroke-width="0" stroke-linecap="butt" stroke-linejoin="miter" stroke-miterlimit="10" stroke-dasharray="" stroke-dashoffset="0" font-family="none" font-weight="none" font-size="none" text-anchor="none" style="mix-blend-mode: normal"><rect x="418" y="11.07143" transform="scale(1,1.4)" width="700" height="500" id="Shape 1 1" vector-effect="non-scaling-stroke"/></g><g fill="none" fill-rule="nonzero" stroke="none" stroke-width="1" stroke-linecap="butt" stroke-linejoin="miter" stroke-miterlimit="10" stroke-dasharray="" stroke-dashoffset="0" font-family="none" font-weight="none" font-size="none" text-anchor="none" style="mix-blend-mode: normal"><g><g id="stage"><g id="layer1 1"><g clip-path="url(#clip-1)" id="Group 1"><g id="Group 1"><g clip-path="url(#clip-2)" id="Group 1"><path d="M798.97641,290.16833c0.1225,-0.01177 0.23406,0.02697 0.34031,0.0835c0.26547,0.14127 0.52375,0.30289 0.78344,0.45478l1.37438,0.80152l4.34828,2.53753l2.46797,1.43256l0.78188,0.44891c0.14375,0.08259 0.3025,0.16127 0.43469,0.26102c0.11641,0.08778 0.16797,0.1823 0.18906,0.32283c0.02906,0.1943 0.02047,0.39294 0.02063,0.58883l0.00047,0.82491l-0.00063,2.84436l0.00016,5.16188l-0.00016,1.71281c-0.00016,0.30438 0.00844,0.61219 -0.00391,0.91625c-0.00438,0.11125 -0.02313,0.21656 -0.09281,0.30687c-0.05578,0.07219 -0.12875,0.13047 -0.20578,0.17875c-0.57812,0.36156 -1.18734,0.68547 -1.77578,1.03094l-4.38063,2.54766l-2.71969,1.59141c-0.42734,0.25031 -0.85219,0.51906 -1.29,0.75016c-0.07687,0.04063 -0.15828,0.05141 -0.24313,0.06438c-0.13063,0.00297 -0.25266,-0.01078 -0.37172,-0.06875c-0.41531,-0.20266 -0.81552,-0.46656 -1.21388,-0.70234l-2.24191,-1.32641l-6.62955,-3.88453c-0.0965,-0.05766 -0.23381,-0.17625 -0.25984,-0.28906c-0.07614,-0.33016 -0.03555,-1.07094 -0.03528,-1.43766l0.00056,-2.66984l0.00036,-5.39691l-0.00162,-1.71719c-0.0005,-0.30834 -0.01191,-0.62137 0.00173,-0.9293c0.00467,-0.10553 0.03081,-0.22148 0.09066,-0.31005c0.04617,-0.06831 0.11537,-0.12781 0.18537,-0.17064c0.5135,-0.31427 1.04869,-0.60103 1.56978,-0.90347l3.67642,-2.13606l2.90194,-1.67858l1.29684,-0.74855c0.2433,-0.13992 0.48513,-0.28914 0.73419,-0.41856c0.08516,-0.04425 0.17359,-0.05863 0.26719,-0.07394zM789.51427,297.17949l0.00077,10.82411l7.1138,4.14922l1.55659,0.90969c0.18172,0.10687 0.63067,0.40812 0.80989,0.45734c0.41844,-0.21734 0.81922,-0.47875 1.22656,-0.71703l2.58281,-1.51406l3.21812,-1.87812c0.81281,-0.46609 1.62328,-0.93656 2.43094,-1.41156c-0.03219,-0.39812 -0.01125,-0.80969 -0.01109,-1.20984l0.00109,-2.16562l-0.00219,-7.46128c-0.38703,-0.21031 -0.76578,-0.43828 -1.14766,-0.658l-2.03516,-1.17623l-4.16391,-2.41972c-0.67375,-0.39169 -1.34141,-0.8095 -2.02516,-1.18259c-0.03453,-0.01881 -0.06531,-0.03873 -0.10578,-0.03212l-6.10369,3.55241l-2.17683,1.25758c-0.38719,0.22455 -0.77061,0.47289 -1.16913,0.67586z" id="CompoundPath 1" fill="#c5c5c6"/><path d="M795.46125,306.55094c-0.78098,-0.62375 -1.19931,-1.60141 -1.31541,-2.57594c-0.1822,-1.52922 0.3457,-2.94989 1.28472,-4.14167c1.52223,-1.93198 3.6635,-2.68366 5.88913,-3.498l0.9025,-0.32928c0.21266,-0.07748 0.45391,-0.19486 0.67937,-0.21663c0.13578,-0.01311 0.30234,0.01411 0.40812,0.10702c0.09031,0.07916 0.14266,0.20586 0.17484,0.31864c0.05797,0.20394 0.06922,0.44277 0.09266,0.65319c0.0525,0.47031 0.10328,0.94586 0.12453,1.41856c0.03656,0.27214 0.03719,0.5628 0.04891,0.83772c0.03125,0.73972 0.05969,1.64533 -0.04313,2.37672c-0.03578,0.65505 -0.18562,1.36045 -0.38781,1.98405c-0.47109,1.50297 -1.52172,2.75641 -2.91937,3.48281c-1.20422,0.61281 -2.55658,0.69047 -3.83675,0.27359c-0.14639,0.41188 -0.26958,0.83641 -0.38855,1.25703c-0.07916,0.27984 -0.13825,0.605 -0.27466,0.86188c-0.04458,0.08406 -0.11198,0.14891 -0.19506,0.19484c-0.14741,0.08125 -0.33658,0.0875 -0.49611,0.04141c-0.16941,-0.05047 -0.31027,-0.16906 -0.389,-0.32734c-0.04816,-0.09719 -0.06022,-0.19375 -0.0508,-0.30109c0.0243,-0.27734 0.12966,-0.56578 0.2067,-0.83375c0.14958,-0.53156 0.31134,-1.05969 0.48516,-1.58375zM795.92525,305.27719c0.04845,-0.24562 0.24425,-0.58984 0.35722,-0.82406c0.69127,-1.43313 1.57602,-2.76391 2.75487,-3.8432c0.19203,-0.1758 0.38547,-0.3683 0.60188,-0.51305c0.16078,-0.10752 0.31328,-0.14842 0.50516,-0.13188c0.16094,0.04725 0.29594,0.13439 0.38031,0.28298c0.08078,0.14198 0.08609,0.29684 0.03844,0.45078c-0.02703,0.08775 -0.09328,0.16834 -0.15328,0.23705c-0.13703,0.15708 -0.30141,0.29608 -0.44937,0.44347c-0.31781,0.31677 -0.64109,0.65019 -0.92125,1.00103c-0.62819,0.78281 -1.16191,1.63703 -1.59022,2.54469c-0.17087,0.36297 -0.30142,0.74734 -0.47863,1.10641c1.07806,0.29578 2.08759,0.24641 3.07463,-0.31391c1.15594,-0.65625 1.87859,-1.75 2.22047,-3.01328c0.38078,-1.40758 0.33156,-3.18586 0.18047,-4.63064c-0.02625,-0.25141 -0.03313,-0.52947 -0.09094,-0.77458l-0.01234,-0.00984c-0.55656,0.25386 -1.14828,0.44586 -1.71625,0.67427c-2.00809,0.80756 -4.17528,1.89578 -4.98469,4.05797c-0.32783,0.8758 -0.41372,1.88095 -0.0133,2.75002c0.08069,0.17516 0.17767,0.35344 0.29683,0.50578z" id="CompoundPath 1" fill="#c5c5c6"/><path d="M803.7075,301.50127c-0.01203,0.03198 -0.02094,0.06142 -0.04266,0.08828c-0.02562,-0.06164 0.04188,-0.93367 0.04906,-1.07752c0.015,-0.2957 0.01375,-0.60047 0.00375,-0.89641c-0.00797,-0.23033 -0.09406,-1.27298 -0.05031,-1.41444c0.00609,0.0267 0.00984,0.0503 0.02516,0.07364c0.00266,0.00422 0.00609,0.008 0.00922,0.012c0.03656,0.27214 0.03719,0.5628 0.04891,0.83772c0.03125,0.73972 0.05969,1.64533 -0.04313,2.37672z" id="Path 1" fill="#e5e5e8"/></g></g></g></g></g></g></g></svg>
